<svg width="536" height="400" viewBox="0 0 536 400" fill="none" xmlns="http://www.w3.org/2000/svg">
<path d="M536 351.521H0V351.789H536V351.521Z" fill="#EBEBEB"/>
<path d="M482.293 368.793H446.788V369.062H482.293V368.793Z" fill="#EBEBEB"/>
<path d="M355.068 371.713H345.752V371.982H355.068V371.713Z" fill="#EBEBEB"/>
<path d="M445.716 358.831H425.144V359.099H445.716V358.831Z" fill="#EBEBEB"/>
<path d="M102.537 360.635H56.2371V360.903H102.537V360.635Z" fill="#EBEBEB"/>
<path d="M118.874 360.635H112.088V360.903H118.874V360.635Z" fill="#EBEBEB"/>
<path d="M241.361 365.165H140.936V365.433H241.361V365.165Z" fill="#EBEBEB"/>
<path d="M254.075 303.642H47.0823C43.7055 303.642 40.9612 300.894 40.9612 297.512V6.12973C40.9612 2.74818 43.7055 0 47.0823 0H254.086C257.462 0 260.207 2.74818 260.207 6.12973V297.512C260.196 300.894 257.452 303.642 254.075 303.642ZM47.0823 0.268377C43.8556 0.268377 41.2292 2.89847 41.2292 6.12973V297.512C41.2292 300.743 43.8556 303.374 47.0823 303.374H254.086C257.312 303.374 259.939 300.743 259.939 297.512V6.12973C259.939 2.89847 257.312 0.268377 254.086 0.268377H47.0823Z" fill="#EBEBEB"/>
<path d="M485.948 303.642H278.945C275.568 303.642 272.824 300.894 272.824 297.512V6.12973C272.824 2.74818 275.568 0 278.945 0H485.948C489.325 0 492.069 2.74818 492.069 6.12973V297.512C492.069 300.894 489.325 303.642 485.948 303.642ZM278.945 0.268377C275.718 0.268377 273.092 2.89847 273.092 6.12973V297.512C273.092 300.743 275.718 303.374 278.945 303.374H485.948C489.175 303.374 491.801 300.743 491.801 297.512V6.12973C491.801 2.89847 489.175 0.268377 485.948 0.268377H278.945Z" fill="#EBEBEB"/>
<path d="M310.55 127.86L458.25 127.86V30.9977L310.55 30.9977V127.86Z" fill="#E6E6E6"/>
<path d="M306.039 127.86L456.14 127.86V30.9977L306.039 30.9977V127.86Z" fill="#F0F0F0"/>
<path d="M310.55 146.866L458.25 146.866V127.854L310.55 127.854V146.866Z" fill="#E6E6E6"/>
<path d="M298.538 146.866L448.639 146.866V127.854L298.538 127.854V146.866Z" fill="#F0F0F0"/>
<path d="M449.832 121.549V37.321L312.348 37.321V121.549L449.832 121.549Z" fill="#FAFAFA"/>
<path d="M418.83 121.543L401.271 37.3259H373.871L391.43 121.543H418.83Z" fill="white"/>
<path d="M446.917 115.252C447.163 115.252 447.367 115.048 447.367 114.801V41.4267C447.367 41.1798 447.163 40.9758 446.917 40.9758C446.67 40.9758 446.467 41.1798 446.467 41.4267V114.801C446.467 115.048 446.66 115.252 446.917 115.252Z" fill="#F0F0F0"/>
<path d="M385.545 121.543L367.985 37.3259H357.298L374.868 121.543H385.545Z" fill="white"/>
<path d="M313.151 121.55V37.322H312.347V121.55H313.151Z" fill="#E6E6E6"/>
<path opacity="0.6" d="M304.544 46.8479H452.255L452.834 39.7734H305.134L304.544 46.8479Z" fill="#EBEBEB"/>
<path opacity="0.6" d="M304.544 58.4419H452.255L452.834 51.3674H305.134L304.544 58.4419Z" fill="#EBEBEB"/>
<path opacity="0.6" d="M304.544 70.0356H452.255L452.834 62.9719H305.134L304.544 70.0356Z" fill="#EBEBEB"/>
<path opacity="0.6" d="M304.544 81.6296H452.255L452.834 74.5659H305.134L304.544 81.6296Z" fill="#EBEBEB"/>
<path opacity="0.6" d="M304.544 93.2343H452.255L452.834 86.1599H305.134L304.544 93.2343Z" fill="#EBEBEB"/>
<path opacity="0.6" d="M304.544 104.828H452.255L452.834 97.7537H305.134L304.544 104.828Z" fill="#EBEBEB"/>
<path d="M437.044 281.077H406.074V287.196H437.044V281.077Z" fill="#E6E6E6"/>
<path d="M347.659 351.517H353.372V210.812H347.659V351.517Z" fill="#E6E6E6"/>
<path d="M327.855 287.188H406.068V281.069H327.855V287.188Z" fill="#F5F5F5"/>
<path d="M437.044 314.538H406.074V320.657H437.044V314.538Z" fill="#E6E6E6"/>
<path d="M327.855 320.642H406.068V314.523H327.855V320.642Z" fill="#F5F5F5"/>
<path d="M437.044 214.165H406.074V220.284H437.044V214.165Z" fill="#E6E6E6"/>
<path d="M327.855 220.269H406.068V214.15H327.855V220.269Z" fill="#F5F5F5"/>
<path d="M437.044 247.615H406.074V253.734H437.044V247.615Z" fill="#E6E6E6"/>
<path d="M327.855 253.734H406.068V247.615H327.855V253.734Z" fill="#F5F5F5"/>
<path d="M425.879 351.517H431.593V210.812H425.879V351.517Z" fill="#E6E6E6"/>
<path d="M400.354 351.517H406.068V210.812H400.354V351.517Z" fill="#F5F5F5"/>
<path d="M327.855 351.517H333.568V210.812H327.855V351.517Z" fill="#F5F5F5"/>
<path d="M70.0824 351.521H128.592V237.848H70.0824L70.0824 351.521Z" fill="#E6E6E6"/>
<path d="M85.7064 351.52H70.0767V335.826H102.087L85.7064 351.52Z" fill="#FAFAFA"/>
<path d="M229.606 351.521H288.116V237.848H229.606V351.521Z" fill="#E6E6E6"/>
<path d="M70.0836 346.12H243.244V237.846H70.0836V346.12Z" fill="#FAFAFA"/>
<path d="M227.618 351.52H243.237V335.826H211.238L227.618 351.52Z" fill="#FAFAFA"/>
<path d="M82.1971 305.281H231.119V278.186H82.1971V305.281Z" fill="#F0F0F0"/>
<path d="M82.1971 338.175H231.119V311.08H82.1971V338.175Z" fill="#F0F0F0"/>
<path d="M110.502 281.088H202.812C205.524 281.088 207.722 278.887 207.722 276.171V275.838H105.603V276.171C105.603 278.887 107.8 281.088 110.502 281.088Z" fill="#FAFAFA"/>
<path d="M82.1971 272.398H231.119V245.303L82.1971 245.303V272.398Z" fill="#F0F0F0"/>
<path d="M110.502 248.195H202.812C205.524 248.195 207.722 245.995 207.722 243.279V242.946H105.603V243.279C105.603 245.995 107.8 248.195 110.502 248.195Z" fill="#FAFAFA"/>
<path d="M110.502 313.969H202.812C205.524 313.969 207.722 311.769 207.722 309.053V308.72H105.603V309.053C105.603 311.769 107.8 313.969 110.502 313.969Z" fill="#FAFAFA"/>
<path d="M79.4001 127.86L227.1 127.86V30.9977L79.4001 30.9977V127.86Z" fill="#E6E6E6"/>
<path d="M74.8995 127.86L225.001 127.86V30.9977L74.8995 30.9977V127.86Z" fill="#F0F0F0"/>
<path d="M79.4001 146.866L227.1 146.866V127.854L79.4001 127.854V146.866Z" fill="#E6E6E6"/>
<path d="M67.3876 146.866L217.489 146.866V127.854L67.3876 127.854V146.866Z" fill="#F0F0F0"/>
<path d="M218.685 121.551L218.685 37.3237L81.2007 37.3237L81.2007 121.551L218.685 121.551Z" fill="#FAFAFA"/>
<path d="M187.686 121.543L170.126 37.3259H142.726L160.285 121.543H187.686Z" fill="white"/>
<path d="M215.762 115.252C216.008 115.252 216.212 115.048 216.212 114.801V41.4267C216.212 41.1798 216.008 40.9758 215.762 40.9758C215.515 40.9758 215.311 41.1798 215.311 41.4267V114.801C215.311 115.048 215.515 115.252 215.762 115.252Z" fill="#F0F0F0"/>
<path d="M154.4 121.543L136.841 37.3259H126.153L143.712 121.543H154.4Z" fill="white"/>
<path d="M82.0037 121.552L82.0037 37.325H81.1997L81.1997 121.552H82.0037Z" fill="#E6E6E6"/>
<path opacity="0.6" d="M73.3999 46.8479H221.1L221.679 39.7734H73.9788L73.3999 46.8479Z" fill="#EBEBEB"/>
<path opacity="0.6" d="M73.3999 50.8305H221.1L221.679 43.7668H73.9788L73.3999 50.8305Z" fill="#EBEBEB"/>
<path opacity="0.6" d="M73.3999 54.8242H221.1L221.679 47.7498H73.9788L73.3999 54.8242Z" fill="#EBEBEB"/>
<path opacity="0.6" d="M73.3999 58.8068H221.1L221.679 51.7432H73.9788L73.3999 58.8068Z" fill="#EBEBEB"/>
<path opacity="0.6" d="M73.3999 62.8003H221.1L221.679 55.7258H73.9788L73.3999 62.8003Z" fill="#EBEBEB"/>
<path opacity="0.6" d="M73.3999 66.7937H221.1L221.679 59.7192H73.9788L73.3999 66.7937Z" fill="#EBEBEB"/>
<path d="M102.933 234.363H108.036V177.37H102.933V234.363Z" fill="#F5F5F5"/>
<path d="M103.576 234.327H105.023V177.334H103.576V234.327Z" fill="#FAFAFA"/>
<path d="M105.623 234.327H106.191V177.334H105.623V234.327Z" fill="#FAFAFA"/>
<path d="M86.5747 237.836H124.373C124.373 235.206 122.24 233.069 119.614 233.069H91.3451C88.708 233.069 86.5747 235.206 86.5747 237.836Z" fill="#F0F0F0"/>
<path d="M96.2977 212.758C97.1017 212.758 97.7664 212.093 97.7664 211.288V173.919C97.7664 173.114 97.1017 172.448 96.2977 172.448C95.4937 172.448 94.8291 173.114 94.8291 173.919V211.288C94.8291 212.093 95.4937 212.758 96.2977 212.758Z" fill="#F0F0F0"/>
<path d="M82.619 190.923H128.34L123.076 158.933H87.8825L82.619 190.923Z" fill="#E0E0E0"/>
<path d="M268 400C382.792 400 475.85 394.559 475.85 387.848C475.85 381.136 382.792 375.696 268 375.696C153.208 375.696 60.1499 381.136 60.1499 387.848C60.1499 394.559 153.208 400 268 400Z" fill="#F5F5F5"/>
<path d="M111.603 158.245L110.534 158.322L111.957 178.12L113.027 178.043L111.603 158.245Z" fill="#407BFF"/>
<path d="M113.777 188.257L112.707 188.334L113.244 195.786L114.313 195.709L113.777 188.257Z" fill="#407BFF"/>
<path d="M362.025 279.338H132.446C127.257 279.338 122.701 275.086 122.326 269.88L111.049 113.008C110.673 107.812 114.618 103.551 119.807 103.551H349.386C354.575 103.551 359.131 107.802 359.506 113.008L370.783 269.88C371.159 275.086 367.214 279.338 362.025 279.338Z" fill="#407BFF"/>
<path d="M362.904 279.338H133.325C128.136 279.338 123.58 275.086 123.205 269.88L111.928 113.008C111.552 107.812 115.497 103.551 120.686 103.551H350.265C355.454 103.551 360.01 107.802 360.385 113.008L371.662 269.88C372.038 275.086 368.103 279.338 362.904 279.338Z" fill="#407BFF"/>
<path opacity="0.5" d="M362.904 279.338H133.325C128.136 279.338 123.58 275.086 123.205 269.88L111.928 113.008C111.552 107.812 115.497 103.551 120.686 103.551H350.265C355.454 103.551 360.01 107.802 360.385 113.008L371.662 269.88C372.038 275.086 368.103 279.338 362.904 279.338Z" fill="white"/>
<path d="M350.608 108.285H121.029C120.772 108.285 120.514 108.295 120.257 108.317C114.393 108.8 115.583 117.742 121.511 117.742H351.477C357.405 117.742 357.308 108.8 351.369 108.317C351.123 108.295 350.866 108.285 350.608 108.285Z" fill="#407BFF"/>
<path d="M127.011 113.008C127.096 114.21 126.196 115.177 125.006 115.177C123.805 115.177 122.776 114.21 122.69 113.008C122.605 111.816 123.505 110.84 124.695 110.84C125.885 110.84 126.925 111.816 127.011 113.008Z" fill="#FAFAFA"/>
<path d="M134.375 113.008C134.461 114.21 133.561 115.177 132.371 115.177C131.17 115.177 130.141 114.21 130.055 113.008C129.969 111.816 130.87 110.84 132.06 110.84C133.25 110.84 134.289 111.816 134.375 113.008Z" fill="#FAFAFA"/>
<path d="M141.729 113.008C141.815 114.21 140.914 115.177 139.724 115.177C138.524 115.177 137.495 114.21 137.409 113.008C137.323 111.816 138.224 110.84 139.414 110.84C140.604 110.84 141.643 111.816 141.729 113.008Z" fill="#FAFAFA"/>
<path d="M356.815 263.675H137.162C135.276 263.675 133.625 262.14 133.496 260.251L124.223 131.247C124.084 129.358 125.51 127.823 127.397 127.823H347.049C348.936 127.823 350.587 129.358 350.716 131.247L359.988 260.251C360.128 262.14 358.713 263.675 356.815 263.675Z" fill="white"/>
<path d="M264.28 214.54L260.7 164.815L249.872 158.278H220.06L224.112 214.54H264.28Z" fill="white"/>
<path d="M264.28 215.056H224.112C223.844 215.056 223.619 214.841 223.598 214.573L219.556 158.321C219.546 158.181 219.599 158.031 219.696 157.924C219.792 157.816 219.932 157.763 220.071 157.763H249.873C249.969 157.763 250.055 157.784 250.141 157.838L260.978 164.365C261.118 164.451 261.214 164.601 261.225 164.773L264.805 214.498C264.816 214.637 264.763 214.787 264.666 214.895C264.559 214.991 264.42 215.056 264.28 215.056ZM224.595 214.015H263.723L260.207 165.116L249.722 158.804H220.618L224.595 214.015Z" fill="#407BFF"/>
<path d="M260.7 164.815L249.872 158.278L253.85 166.93L260.7 164.815Z" fill="#EBEBEB"/>
<path d="M253.85 167.456C253.657 167.456 253.464 167.338 253.378 167.156L249.401 158.503C249.304 158.299 249.358 158.052 249.529 157.902C249.701 157.752 249.948 157.73 250.14 157.848L260.978 164.375C261.15 164.483 261.246 164.676 261.225 164.88C261.204 165.084 261.053 165.256 260.86 165.309L254 167.435C253.946 167.446 253.903 167.456 253.85 167.456ZM251.052 159.598L254.139 166.297L259.456 164.655L251.052 159.598Z" fill="#407BFF"/>
<path d="M236.88 183.624C236.966 184.88 236.022 185.899 234.779 185.899C233.535 185.899 232.431 184.88 232.345 183.624C232.26 182.368 233.203 181.348 234.446 181.348C235.69 181.348 236.783 182.368 236.88 183.624Z" fill="#407BFF"/>
<path d="M251.598 183.624C251.684 184.88 250.741 185.899 249.497 185.899C248.243 185.899 247.15 184.88 247.064 183.624C246.978 182.368 247.921 181.348 249.165 181.348C250.419 181.358 251.513 182.368 251.598 183.624Z" fill="#407BFF"/>
<path d="M255.758 198.363C255.49 198.363 255.265 198.159 255.243 197.88C254.975 194.23 249.261 191.256 242.486 191.256C238.005 191.256 233.975 192.587 231.97 194.745C231.08 195.7 230.673 196.731 230.748 197.815C230.769 198.105 230.555 198.352 230.266 198.373C229.976 198.395 229.73 198.18 229.708 197.89C229.612 196.527 230.126 195.196 231.209 194.037C233.396 191.686 237.716 190.215 242.486 190.215C249.915 190.215 255.972 193.553 256.283 197.805C256.304 198.094 256.09 198.341 255.801 198.363C255.779 198.363 255.768 198.363 255.758 198.363Z" fill="#407BFF"/>
<path d="M228.518 179.018C228.39 179.018 228.261 178.975 228.165 178.879C227.95 178.685 227.939 178.353 228.132 178.149L230.405 175.69C230.598 175.476 230.93 175.465 231.134 175.658C231.348 175.851 231.359 176.184 231.166 176.388L228.893 178.846C228.797 178.964 228.658 179.018 228.518 179.018Z" fill="#407BFF"/>
<path d="M254.686 179.018C254.557 179.018 254.429 178.975 254.332 178.879L251.706 176.42C251.491 176.227 251.481 175.894 251.684 175.69C251.877 175.475 252.209 175.465 252.413 175.669L255.04 178.127C255.254 178.32 255.265 178.653 255.061 178.857C254.964 178.964 254.825 179.018 254.686 179.018Z" fill="#407BFF"/>
<path d="M216.823 225.651H219.245L222.74 230.3L222.408 225.651H224.852L225.452 234.057H223.008L219.535 229.441L219.867 234.057H217.423L216.823 225.651Z" fill="#407BFF"/>
<path d="M226.546 229.859C226.449 228.485 226.749 227.423 227.457 226.65C228.164 225.887 229.204 225.501 230.566 225.501C231.959 225.501 233.064 225.877 233.878 226.628C234.693 227.38 235.143 228.432 235.24 229.784C235.315 230.772 235.208 231.577 234.918 232.2C234.629 232.833 234.189 233.316 233.589 233.67C232.988 234.025 232.227 234.196 231.295 234.196C230.351 234.196 229.558 234.046 228.915 233.746C228.272 233.445 227.736 232.962 227.307 232.307C226.867 231.663 226.621 230.847 226.546 229.859ZM229.151 229.87C229.215 230.718 229.408 231.33 229.751 231.695C230.094 232.071 230.534 232.253 231.08 232.253C231.638 232.253 232.056 232.071 232.335 231.706C232.613 231.341 232.72 230.686 232.656 229.752C232.603 228.958 232.399 228.378 232.056 228.013C231.713 227.648 231.263 227.465 230.716 227.465C230.191 227.465 229.783 227.648 229.494 228.024C229.194 228.399 229.086 229.011 229.151 229.87Z" fill="#407BFF"/>
<path d="M240.289 225.651H244.148C244.909 225.651 245.531 225.759 246.013 225.963C246.496 226.167 246.903 226.467 247.235 226.854C247.568 227.24 247.825 227.691 247.997 228.206C248.168 228.722 248.275 229.258 248.318 229.838C248.382 230.74 248.329 231.438 248.157 231.931C247.986 232.425 247.739 232.844 247.396 233.177C247.053 233.509 246.689 233.735 246.271 233.842C245.713 233.993 245.199 234.068 244.738 234.068H240.878L240.289 225.651ZM243.022 227.551L243.355 232.146H243.987C244.534 232.146 244.909 232.082 245.134 231.964C245.359 231.846 245.52 231.631 245.627 231.33C245.735 231.03 245.767 230.547 245.713 229.87C245.649 228.979 245.456 228.367 245.145 228.045C244.834 227.712 244.341 227.551 243.666 227.551H243.022Z" fill="#407BFF"/>
<path d="M254.546 232.672H251.598L251.288 234.057H248.64L251.191 225.651H254.021L257.784 234.057H255.072L254.546 232.672ZM253.871 230.858L252.724 227.831L252.027 230.858H253.871Z" fill="#407BFF"/>
<path d="M256.605 225.651H264.495L264.645 227.723H261.997L262.447 234.057H259.853L259.403 227.723H256.755L256.605 225.651Z" fill="#407BFF"/>
<path d="M270.541 232.672H267.593L267.282 234.057H264.634L267.185 225.651H270.015L273.778 234.057H271.066L270.541 232.672ZM269.865 230.858L268.718 227.831L268.021 230.858H269.865Z" fill="#407BFF"/>
<path d="M379.156 126.814C380.11 126.331 381.257 125.708 382.307 125.128C383.379 124.538 384.451 123.915 385.502 123.282C387.603 121.983 389.715 120.705 391.73 119.288C395.782 116.486 399.588 113.384 402.997 110.002C403.447 109.595 403.822 109.133 404.241 108.704L404.852 108.049L405.162 107.716L405.313 107.555C405.355 107.512 405.345 107.523 405.323 107.544L405.291 107.598C405.141 107.888 405.27 107.802 405.323 107.523C405.398 107.254 405.452 106.825 405.473 106.353C405.538 104.399 405.162 101.94 404.691 99.568C403.737 94.7479 402.289 89.799 400.864 84.9468L405.034 83.1218C407.639 87.7916 409.815 92.5472 411.584 97.7215C412.431 100.341 413.202 102.971 413.428 106.192C413.47 107.018 413.492 107.877 413.342 108.886C413.181 109.874 412.934 111.065 412.034 112.407L411.852 112.654L411.712 112.837L411.552 113.041L411.219 113.438L410.555 114.243C410.104 114.769 409.686 115.338 409.204 115.832C405.505 119.943 401.4 123.572 397.005 126.728C394.818 128.327 392.588 129.841 390.272 131.226C389.115 131.924 387.946 132.6 386.756 133.255C385.556 133.92 384.408 134.511 383.036 135.155L379.156 126.814Z" fill="#FFB573"/>
<path d="M369.615 379.195C370.44 379.195 371.352 379.024 371.984 378.873C372.07 378.852 372.134 378.787 372.145 378.702C372.156 378.616 372.123 378.53 372.048 378.487C371.737 378.283 369.015 376.522 367.964 376.995C367.803 377.07 367.589 377.231 367.546 377.596C367.482 378.068 367.6 378.455 367.9 378.723C368.286 379.067 368.929 379.195 369.615 379.195ZM371.384 378.562C369.819 378.873 368.65 378.82 368.189 378.401C367.996 378.229 367.921 377.972 367.975 377.639C367.996 377.456 368.082 377.403 368.157 377.37C368.704 377.134 370.28 377.896 371.384 378.562Z" fill="#407BFF"/>
<path d="M371.941 378.873C371.973 378.873 372.016 378.863 372.048 378.841C372.113 378.798 372.156 378.734 372.156 378.659C372.156 378.551 372.145 375.964 371.169 375.095C370.912 374.869 370.612 374.773 370.269 374.805C369.733 374.869 369.594 375.202 369.551 375.395C369.347 376.404 370.976 378.347 371.834 378.831C371.866 378.863 371.909 378.873 371.941 378.873ZM370.408 375.234C370.58 375.234 370.741 375.299 370.88 375.417C371.459 375.932 371.662 377.381 371.716 378.251C370.858 377.564 369.84 376.115 369.969 375.492C369.99 375.395 370.044 375.266 370.322 375.234C370.355 375.234 370.387 375.234 370.408 375.234Z" fill="#407BFF"/>
<path d="M371.148 99.9543C370.108 105.29 367.9 116.1 371.63 119.653C371.63 119.653 370.172 125.064 360.278 125.064C349.386 125.064 355.079 119.653 355.079 119.653C361.017 118.236 360.867 113.813 359.828 109.67L371.148 99.9543Z" fill="#FFB573"/>
<path d="M352.988 121.811C351.284 122.047 352.731 117.614 353.428 117.152C355.036 116.089 375.779 114.586 375.65 117.109C375.565 118.193 375.061 120.308 374.149 121.027C373.238 121.747 367.91 119.578 352.988 121.811Z" fill="#263238"/>
<path d="M356.376 120.319C355.014 120.781 355.143 116.315 355.615 115.778C356.687 114.533 373.474 110.217 373.978 112.654C374.171 113.706 374.267 115.821 373.689 116.637C373.099 117.453 368.168 116.1 356.376 120.319Z" fill="#263238"/>
<path d="M350.126 90.3465C349.997 90.3572 349.858 90.3035 349.772 90.1962C348.572 88.7255 347.006 88.8758 346.996 88.8758C346.76 88.8972 346.556 88.7362 346.524 88.5C346.503 88.2639 346.663 88.0599 346.899 88.0277C346.985 88.017 348.936 87.8345 350.426 89.6487C350.576 89.8312 350.544 90.0996 350.362 90.2498C350.297 90.3035 350.212 90.3357 350.126 90.3465Z" fill="#263238"/>
<path d="M348.046 95.5959C348.046 95.5959 347.124 98.8272 345.934 100.459C346.974 101.253 348.55 100.684 348.55 100.684L348.046 95.5959Z" fill="#FF5652"/>
<path d="M348.572 94.2862C348.647 95.0055 348.314 95.6281 347.843 95.6818C347.371 95.7247 346.931 95.1772 346.856 94.458C346.781 93.7387 347.114 93.1161 347.585 93.0624C348.057 93.0195 348.496 93.567 348.572 94.2862Z" fill="#263238"/>
<path d="M347.8 93.084L346.02 92.7512C346.02 92.762 347.039 94.0287 347.8 93.084Z" fill="#263238"/>
<path d="M382.382 378.659H373.399L374.107 357.833H383.09L382.382 378.659Z" fill="#FFB573"/>
<path d="M372.692 377.617H382.779C383.144 377.617 383.444 377.875 383.497 378.229L384.644 386.227C384.762 387.054 384.055 387.837 383.208 387.826C379.692 387.762 377.998 387.558 373.56 387.558C370.826 387.558 366.838 387.837 363.076 387.837C359.388 387.837 359.109 384.101 360.674 383.769C367.707 382.255 368.822 380.162 371.191 378.165C371.62 377.811 372.156 377.617 372.692 377.617Z" fill="#263238"/>
<g opacity="0.2">
<path opacity="0.2" d="M383.09 357.844H374.107L373.742 368.579H382.725L383.09 357.844Z" fill="black"/>
</g>
<path d="M346.653 132.138C341.1 129.959 335.793 127.586 330.519 124.892C325.245 122.187 320.067 119.32 315.082 115.477C313.839 114.5 312.617 113.427 311.416 112.182C311.116 111.86 310.816 111.559 310.526 111.194C310.215 110.808 309.98 110.582 309.583 109.981C308.854 108.94 308.297 107.533 308.146 106.106C308.007 104.678 308.264 103.304 308.672 102.219C309.079 101.114 309.615 100.201 310.183 99.4176C311.309 97.8503 312.563 96.6801 313.817 95.6388C316.326 93.5562 318.984 92.0426 321.643 90.6256C322.972 89.917 324.323 89.2837 325.695 88.6932C327.078 88.0921 328.418 87.5446 329.887 87.04L331.795 91.173C327.121 94.1252 322.275 97.3672 318.716 101.006C317.848 101.908 317.098 102.853 316.615 103.679C316.101 104.527 316.111 105.161 316.197 105.107C316.24 105.107 316.219 105.086 316.347 105.215L316.776 105.676C316.937 105.869 317.162 106.063 317.366 106.267C318.213 107.05 319.199 107.845 320.26 108.596C322.383 110.11 324.73 111.527 327.153 112.858C329.565 114.2 332.052 115.488 334.593 116.712C339.642 119.138 344.884 121.467 350.019 123.593L346.653 132.138Z" fill="#FFB573"/>
<path d="M334.432 88.2424L335.922 85.0219L329.168 82.6709C329.168 82.6709 327.067 89.0046 329.576 91.9353C331.698 91.5917 333.531 90.2069 334.432 88.2424Z" fill="#FFB573"/>
<path d="M335.911 78.0441L330.519 76.4875L329.168 82.671L335.911 85.0219V78.0441Z" fill="#FFB573"/>
<path d="M405.591 85.3334L406.374 77.7974L399.416 79.4291C399.416 79.4291 399.309 86.4928 402.997 87.62L405.591 85.3334Z" fill="#FFB573"/>
<path d="M403.029 72.5156L398.495 74.6412L399.427 79.429L406.374 77.7973L403.029 72.5156Z" fill="#FFB573"/>
<path d="M372.563 89.4233C372.895 98.3441 373.217 102.112 369.197 107.104C363.14 114.608 352.131 113.062 349.15 104.42C346.47 96.648 346.385 83.3687 354.703 78.9888C362.893 74.6625 372.241 80.5024 372.563 89.4233Z" fill="#FFB573"/>
<path d="M368.682 107.082C377.43 103.304 383.176 95.3275 380.742 82.8534C378.416 70.916 370.376 69.7458 367.053 72.2149C363.73 74.6947 355.443 71.0018 350.48 75.1885C341.872 82.4454 350.008 90.2713 354.253 94.9089C356.783 100.126 360.106 110.797 368.682 107.082Z" fill="#263238"/>
<path d="M365.048 80.7065C367.996 84.9791 373.656 86.1922 377.687 83.401C381.718 80.6099 382.597 74.8881 379.638 70.6048C376.69 66.3322 371.03 65.1192 366.999 67.9103C362.979 70.7014 362.1 76.434 365.048 80.7065Z" fill="#407BFF"/>
<path d="M367.321 73.0523C366.056 65.8598 372.852 60.3205 381.943 62.9936C391.023 65.6773 386.22 73.7394 384.355 80.1804C382.49 86.6215 387.378 92.7512 389.425 87.856C391.473 82.9501 388.032 81.4364 388.032 81.4364C388.032 81.4364 397.68 83.9377 388.718 94.8338C379.756 105.719 371.641 93.6959 373.839 86.6C375.618 80.8567 368.521 79.8476 367.321 73.0523Z" fill="#263238"/>
<path d="M358.241 75.7683C354.092 73.5998 347.071 71.85 343.072 78.5809C341.185 81.7692 341.914 86.0847 341.914 86.0847L354.125 86.9006L358.241 75.7683Z" fill="#263238"/>
<path d="M340.478 83.97C340.467 83.97 340.467 83.97 340.456 83.97C340.306 83.9593 340.199 83.8304 340.21 83.6909C340.221 83.5084 340.521 79.1929 343.115 76.4769C349.408 69.9285 356.783 75.3605 358.895 77.1854C359.002 77.282 359.024 77.4538 358.927 77.5611C358.831 77.6685 358.659 77.69 358.552 77.5934C356.536 75.8543 349.472 70.6477 343.512 76.8526C341.046 79.4183 340.757 83.6801 340.746 83.7231C340.735 83.8626 340.617 83.97 340.478 83.97Z" fill="#263238"/>
<path d="M355.743 94.5548C355.733 96.2938 354.95 97.99 353.964 99.1494C352.484 100.888 350.78 100.03 350.394 98.1081C350.04 96.3797 350.394 93.3846 352.259 92.3433C354.114 91.302 355.765 92.5688 355.743 94.5548Z" fill="#FFB573"/>
<path d="M353.814 176.238C353.814 176.238 354.382 238.652 359.795 273.433C364.158 301.527 372.241 366.496 372.241 366.496H384.484C384.484 366.496 385.684 303.782 383.465 275.988C377.859 205.674 392.331 192.534 380.646 176.227H353.814V176.238Z" fill="#263238"/>
<path opacity="0.1" d="M353.814 176.238C353.814 176.238 354.382 238.652 359.795 273.433C364.158 301.527 372.241 366.496 372.241 366.496H384.484C384.484 366.496 385.684 303.782 383.465 275.988C377.859 205.674 392.331 192.534 380.646 176.227H353.814V176.238Z" fill="white"/>
<path opacity="0.3" d="M360.256 204.557C364.555 223.397 361.125 253.069 358.777 266.134C356.29 246.295 355.036 220.585 354.414 201.744C356.633 198.137 358.734 197.901 360.256 204.557Z" fill="black"/>
<path d="M370.569 366.743H386.167L386.981 361.257L370.483 360.699L370.569 366.743Z" fill="#407BFF"/>
<path d="M375.018 123.55C376.486 120.63 384.366 118.794 388.686 118.794L391.912 133.136C391.912 133.136 383.326 145.901 379.756 144.548C375.532 142.959 371.877 129.809 375.018 123.55Z" fill="#407BFF"/>
<path opacity="0.4" d="M375.018 123.55C376.486 120.63 384.366 118.794 388.686 118.794L391.912 133.136C391.912 133.136 383.326 145.901 379.756 144.548C375.532 142.959 371.877 129.809 375.018 123.55Z" fill="black"/>
<path d="M365.927 363.232C365.97 363.168 365.97 363.093 365.938 363.018C365.895 362.942 365.809 362.889 365.724 362.91C365.273 362.975 361.307 363.608 360.771 364.746C360.664 364.961 360.685 365.197 360.814 365.412C361.028 365.777 361.339 365.98 361.736 366.023C363.033 366.163 364.909 364.349 365.917 363.265C365.917 363.254 365.927 363.243 365.927 363.232ZM361.168 364.886C361.532 364.284 363.59 363.726 365.155 363.436C363.74 364.875 362.497 365.68 361.768 365.605C361.511 365.583 361.318 365.444 361.168 365.197C361.114 365.1 361.103 365.014 361.146 364.928C361.157 364.907 361.157 364.896 361.168 364.886Z" fill="#407BFF"/>
<path d="M365.927 363.233C365.938 363.222 365.938 363.2 365.949 363.19C365.97 363.114 365.959 363.039 365.906 362.986C365.841 362.911 364.244 361.075 362.786 360.978C362.336 360.946 361.939 361.086 361.618 361.375C361.178 361.773 361.21 362.116 361.328 362.331C361.789 363.254 364.641 363.576 365.799 363.329C365.852 363.318 365.895 363.286 365.927 363.233ZM361.736 361.88C361.768 361.826 361.821 361.762 361.907 361.687C362.154 361.472 362.432 361.375 362.765 361.397C363.73 361.461 364.823 362.46 365.316 362.964C364.041 363.072 361.982 362.685 361.704 362.127C361.693 362.105 361.65 362.019 361.736 361.88Z" fill="#407BFF"/>
<path d="M375.286 359.421L367.074 363.082L363.419 355.449L358.638 345.466L358.069 344.296L366.281 340.646L366.913 341.945L371.544 351.617L375.286 359.421Z" fill="#FFB573"/>
<path opacity="0.2" d="M371.544 351.617L363.419 355.45L358.638 345.466L366.913 341.945L371.544 351.617Z" fill="black"/>
<path d="M344.187 176.238C344.187 176.238 317.955 241.54 325.063 272.296C331.495 300.089 359.903 352.723 359.903 352.723L370.891 347.194C370.891 347.194 353.321 283.653 351.412 269.848C347.703 242.989 371.544 205.083 371.544 176.227L344.187 176.238Z" fill="#263238"/>
<path opacity="0.1" d="M344.187 176.238C344.187 176.238 317.955 241.54 325.063 272.296C331.495 300.089 359.903 352.723 359.903 352.723L370.891 347.194C370.891 347.194 353.321 283.653 351.412 269.848C347.703 242.989 371.544 205.083 371.544 176.227L344.187 176.238Z" fill="white"/>
<path d="M365.616 361.934L373.774 355.986C374.074 355.772 374.46 355.804 374.718 356.061L380.346 361.848C380.924 362.449 380.817 363.501 380.12 363.984C377.237 366.013 375.747 366.84 372.166 369.448C369.958 371.058 365.563 374.612 362.518 376.834C359.538 379.002 357.115 376.158 358.187 374.955C362.99 369.588 363.998 366.26 364.737 363.254C364.855 362.728 365.177 362.256 365.616 361.934Z" fill="#263238"/>
<path d="M359.195 355.052L373.378 348.558L371.566 342.771L356.376 349.706L359.195 355.052Z" fill="#407BFF"/>
<path d="M351.144 122.82C349.965 119.771 339.717 116.422 334.582 115.263L332.32 132.181C332.32 132.181 340.714 144.269 344.401 143.26C348.754 142.09 353.674 129.347 351.144 122.82Z" fill="#407BFF"/>
<path opacity="0.4" d="M351.144 122.82C349.965 119.771 339.717 116.422 334.582 115.263L332.32 132.181C332.32 132.181 340.714 144.269 344.401 143.26C348.754 142.09 353.674 129.347 351.144 122.82Z" fill="black"/>
<path d="M339.899 121.961C339.899 121.961 335.622 123.475 344.187 176.238C358.659 176.238 373.613 176.238 380.657 176.238C380.045 161.37 380.024 152.213 387.121 121.704C387.121 121.704 379.477 120.04 371.63 119.664C365.498 119.363 360.46 119.17 355.068 119.664C347.961 120.308 339.899 121.961 339.899 121.961Z" fill="#407BFF"/>
<path opacity="0.4" d="M339.899 121.961C339.899 121.961 335.622 123.475 344.187 176.238C358.659 176.238 373.613 176.238 380.657 176.238C380.045 161.37 380.024 152.213 387.121 121.704C387.121 121.704 379.477 120.04 371.63 119.664C365.498 119.363 360.46 119.17 355.068 119.664C347.961 120.308 339.899 121.961 339.899 121.961Z" fill="black"/>
<path d="M381.203 174.091L382.843 177.365C382.972 177.623 382.672 177.88 382.254 177.88H344.005C343.673 177.88 343.405 177.719 343.383 177.515L343.051 174.252C343.029 174.027 343.308 173.833 343.673 173.833H380.603C380.882 173.823 381.117 173.93 381.203 174.091Z" fill="#407BFF"/>
<path opacity="0.3" d="M381.203 174.091L382.843 177.365C382.972 177.623 382.672 177.88 382.254 177.88H344.005C343.673 177.88 343.405 177.719 343.383 177.515L343.051 174.252C343.029 174.027 343.308 173.833 343.673 173.833H380.603C380.882 173.823 381.117 173.93 381.203 174.091Z" fill="white"/>
<path d="M376.24 178.224H377.226C377.419 178.224 377.569 178.127 377.558 177.998L377.097 173.747C377.087 173.619 376.915 173.522 376.712 173.522H375.725C375.532 173.522 375.382 173.619 375.393 173.747L375.854 177.998C375.875 178.127 376.047 178.224 376.24 178.224Z" fill="#263238"/>
<path d="M352.27 178.224H353.256C353.449 178.224 353.599 178.127 353.588 177.998L353.127 173.747C353.117 173.619 352.945 173.522 352.742 173.522H351.755C351.562 173.522 351.412 173.619 351.423 173.747L351.884 177.998C351.895 178.127 352.066 178.224 352.27 178.224Z" fill="#263238"/>
</svg>
